<?xml version="1.0" standalone="no"?>
<!DOCTYPE svg PUBLIC "-//W3C//DTD SVG 20010904//EN"
 "http://www.w3.org/TR/2001/REC-SVG-20010904/DTD/svg10.dtd">
<svg version="1.0" xmlns="http://www.w3.org/2000/svg"
 width="1536.000000pt" height="1024.000000pt" viewBox="0 0 1536.000000 1024.000000"
 preserveAspectRatio="xMidYMid meet">

<g transform="translate(0.000000,1024.000000) scale(0.100000,-0.100000)"
fill="#000000" stroke="none">
<path d="M7937 8990 c-26 -16 -52 -30 -56 -30 -5 0 -24 -17 -44 -39 -22 -25
-47 -41 -70 -45 -77 -14 -146 -131 -231 -393 -98 -301 -117 -418 -120 -730
l-2 -232 -36 -68 c-21 -41 -38 -90 -42 -124 -6 -49 -4 -62 24 -116 16 -34 30
-73 30 -87 0 -23 -42 -195 -76 -314 l-16 -53 -65 3 -66 3 -19 80 c-19 81 -66
243 -95 325 -9 25 -59 135 -112 245 -92 191 -96 203 -95 265 1 100 14 117 146
186 128 67 224 148 253 216 11 24 32 58 48 77 36 42 47 70 59 155 20 142 -25
337 -96 415 -23 25 -54 64 -69 87 -27 40 -62 64 -93 64 -8 0 -32 11 -52 25
-20 14 -51 25 -68 25 -18 0 -54 11 -81 25 -65 34 -178 41 -403 26 -257 -17
-351 -29 -381 -51 -19 -14 -37 -17 -66 -13 -56 7 -558 -84 -608 -110 -11 -6
-48 -12 -81 -13 -76 -3 -172 -21 -200 -39 -11 -7 -26 -26 -33 -42 -11 -27 -19
-30 -88 -42 -142 -24 -397 -129 -494 -203 -34 -26 -53 -34 -72 -31 -20 4 -33
-2 -54 -25 -15 -16 -45 -35 -65 -41 -45 -15 -128 -77 -128 -96 0 -7 -9 -17
-21 -20 -11 -4 -25 -19 -30 -34 -9 -25 -17 -28 -172 -60 -89 -18 -181 -36
-205 -40 -32 -6 -55 -20 -88 -52 -24 -24 -46 -51 -49 -60 -9 -27 12 -67 45
-84 28 -14 46 -13 259 16 l229 32 43 -45 c54 -56 121 -78 236 -78 55 0 94 -6
133 -21 135 -51 166 -60 258 -76 81 -14 121 -15 242 -6 l145 10 34 -30 c32
-27 37 -28 95 -22 33 3 84 11 113 16 43 9 56 7 77 -6 41 -27 64 -74 64 -131 0
-62 15 -112 55 -179 80 -134 156 -173 357 -184 l105 -6 18 -55 c20 -60 57
-290 57 -357 l0 -42 -52 -5 c-29 -3 -77 -7 -105 -9 l-53 -4 -38 61 c-21 34
-65 91 -97 128 -80 92 -119 105 -230 77 -44 -12 -85 -25 -92 -31 -9 -7 -24 0
-52 24 -42 34 -48 47 -31 64 6 6 10 24 10 40 -3 200 -4 205 -30 226 -14 12
-103 59 -198 105 -171 84 -174 85 -205 70 -18 -9 -50 -22 -72 -30 -22 -8 -47
-17 -55 -21 -11 -4 -21 5 -35 31 -51 100 -71 110 -310 159 -121 24 -143 26
-320 21 -208 -6 -353 -26 -568 -78 -175 -43 -182 -55 -148 -265 37 -224 43
-265 40 -268 -2 -1 -19 -12 -36 -25 l-33 -22 -92 71 -92 71 -85 -6 c-166 -12
-156 -7 -261 -114 -143 -144 -270 -319 -270 -372 0 -10 25 -55 56 -100 31 -45
72 -111 91 -147 31 -58 33 -67 23 -98 -13 -38 -4 -37 -159 -13 -82 13 -145 -3
-168 -42 -10 -16 -32 -32 -56 -40 -21 -7 -45 -22 -52 -33 -38 -59 -102 -357
-107 -501 -4 -92 -11 -84 166 -185 65 -38 123 -73 129 -79 5 -5 10 -29 11 -53
l2 -44 -108 -51 c-93 -44 -108 -55 -108 -75 0 -16 -15 -38 -45 -65 -40 -36
-45 -45 -45 -82 0 -57 53 -262 96 -374 20 -51 41 -107 48 -124 7 -18 23 -44
36 -58 21 -23 31 -25 101 -25 76 0 79 -1 93 -29 15 -29 15 -29 -40 -77 -42
-35 -55 -52 -51 -68 43 -204 141 -702 192 -986 37 -200 70 -371 75 -380 17
-32 51 -50 250 -135 775 -331 1448 -591 2540 -982 738 -264 2015 -683 2082
-683 37 0 95 17 583 175 1415 458 2881 995 3884 1425 315 134 371 161 390 184
16 19 31 91 107 489 68 361 156 758 199 902 88 290 110 433 102 665 -4 130
-11 186 -31 265 -58 232 -160 409 -330 572 -56 54 -129 114 -163 133 -38 22
-64 45 -71 62 -6 17 -28 36 -58 51 -56 29 -80 52 -119 121 -32 56 -34 94 -15
204 44 243 -43 382 -446 715 -74 62 -123 87 -184 94 -41 5 -56 1 -106 -26 -38
-21 -72 -31 -99 -31 -82 0 -156 -49 -315 -209 -114 -115 -156 -165 -197 -234
-29 -49 -54 -94 -55 -99 -3 -7 -26 -8 -71 -2 l-68 9 86 150 c48 83 123 224
168 315 45 91 100 195 122 232 45 75 115 141 160 152 17 4 44 20 60 36 17 15
65 43 107 60 78 33 78 33 122 16 25 -9 62 -30 84 -46 34 -24 42 -38 53 -84 7
-31 24 -70 40 -90 46 -55 262 -146 349 -146 123 0 218 101 318 338 58 138 67
233 32 337 -33 98 -54 116 -205 172 -156 57 -210 62 -268 22 -33 -23 -43 -25
-76 -18 -23 5 -52 4 -72 -1 -19 -6 -38 -10 -42 -10 -19 0 -119 107 -136 145
-62 139 -532 296 -896 298 -286 2 -590 -80 -785 -213 -130 -89 -187 -157 -175
-210 3 -16 1 -38 -5 -49 -14 -26 4 -56 42 -72 22 -9 63 -6 205 15 293 43 486
31 631 -41 80 -39 82 -45 52 -112 -22 -47 -26 -91 -10 -107 16 -16 -98 -182
-159 -233 -119 -100 -324 -381 -492 -673 -51 -89 -32 -84 -225 -67 -99 9 -135
9 -168 -1 -22 -7 -35 -15 -28 -17 21 -8 13 -23 -12 -23 -29 0 -98 28 -108 44
-4 6 -8 24 -8 39 0 15 -7 30 -15 33 -28 11 -15 21 38 28 73 10 248 82 332 136
201 132 332 299 405 519 29 86 31 103 28 195 -3 88 -7 109 -33 160 -56 111
-95 112 -313 7 -81 -39 -158 -71 -170 -71 -17 0 -75 51 -208 182 -206 203
-207 205 -163 296 32 66 170 199 285 275 110 73 190 150 224 216 18 36 20 52
15 95 -13 91 -27 113 -87 131 -256 76 -629 2 -905 -182 -160 -105 -308 -273
-396 -448 -78 -156 -129 -364 -147 -596 -6 -90 -16 -137 -40 -205 -50 -141
-87 -255 -99 -309 -7 -27 -25 -68 -41 -90 -16 -22 -82 -113 -146 -202 l-117
-163 -118 0 c-64 0 -124 3 -132 6 -17 6 -13 28 35 202 l31 113 44 19 c52 23
77 70 88 164 9 70 63 193 130 291 117 174 250 500 300 737 47 221 44 363 -11
443 -14 21 -24 50 -24 71 0 32 -23 83 -67 150 -24 38 -84 64 -146 64 -42 0
-63 -6 -100 -30z m163 -45 c38 -20 76 -87 85 -150 l7 -50 -21 19 c-14 12 -21
31 -21 53 0 49 -45 123 -74 123 -6 0 -5 -5 2 -12 15 -15 15 -50 0 -83 -14 -30
-11 -30 -99 -5 -40 11 -76 17 -80 14 -16 -10 -9 13 12 40 46 58 131 81 189 51z
m-1225 -49 c28 -13 59 -33 69 -45 l19 -21 -71 0 c-65 0 -139 -12 -250 -42 -70
-18 -30 -27 121 -27 124 0 142 -2 173 -22 19 -11 41 -34 49 -50 l15 -28 112
-3 c78 -2 113 -7 116 -15 3 -10 -16 -13 -75 -12 -61 1 -70 3 -43 9 30 6 26 8
-28 9 -37 0 -61 -3 -57 -8 3 -5 -5 -13 -17 -17 -13 -4 -24 -2 -26 5 -4 12 -43
14 -79 5 -13 -4 -20 -10 -18 -15 6 -9 -15 -13 -185 -35 -184 -23 -196 -34
-180 -176 6 -51 13 -101 16 -111 11 -36 36 -38 216 -16 241 29 296 33 279 21
-8 -6 -20 -8 -28 -5 -7 3 -13 1 -13 -4 0 -12 -124 -49 -210 -63 -81 -12 -194
-13 -165 0 16 7 11 9 -21 9 -39 1 -103 35 -90 49 3 2 -9 12 -26 21 -28 14 -33
24 -44 79 -21 104 -44 172 -64 192 -10 10 -26 31 -34 47 -16 27 -16 27 -11 3
36 -186 45 -259 45 -350 0 -110 -6 -150 -22 -150 -5 0 -7 27 -3 68 4 37 2 114
-5 172 -21 193 -68 338 -146 456 -20 30 -35 56 -33 58 2 2 32 6 66 10 l62 7
51 -76 c52 -78 86 -100 71 -47 -13 45 -39 89 -56 96 -9 3 -15 12 -13 19 6 16
87 23 303 25 170 2 183 0 230 -22z m2552 -32 c-3 -3 -12 -4 -19 -1 -8 3 -5 6
6 6 11 1 17 -2 13 -5z m-3345 -65 c83 -121 136 -315 145 -529 5 -134 -6 -243
-27 -264 -6 -6 -6 3 1 23 14 40 7 281 -10 324 l-11 27 -39 -24 c-86 -55 -381
-108 -428 -78 -6 4 -23 46 -36 92 -14 47 -35 110 -47 140 -13 30 -33 87 -45
127 l-23 71 50 13 c41 9 47 14 34 21 -10 5 -43 7 -74 4 -31 -3 -62 -5 -69 -5
-7 -1 0 -20 18 -45 93 -139 138 -355 126 -619 -9 -210 -22 -198 -22 21 0 151
-4 216 -18 280 -26 120 -73 259 -108 315 -17 27 -29 50 -27 52 21 18 526 117
563 111 6 -1 27 -27 47 -57z m963 36 c27 -17 34 -25 21 -25 -17 0 -86 36 -86
46 0 10 29 1 65 -21z m2292 9 c-33 -8 -66 -22 -75 -31 -16 -15 -14 -16 18 -9
34 7 248 36 259 36 3 0 -30 -20 -75 -43 -89 -47 -224 -136 -224 -148 0 -11 73
15 119 42 37 21 33 17 -57 -52 -58 -45 -159 -166 -195 -233 -18 -33 -22 -57
-21 -123 0 -46 -3 -83 -8 -83 -4 0 -8 -9 -8 -20 0 -11 28 -46 68 -82 107 -100
282 -277 345 -351 32 -37 73 -79 92 -93 37 -28 98 -46 112 -34 14 13 326 172
366 186 36 13 37 12 36 -9 0 -15 -2 -17 -6 -7 -4 8 -18 -21 -35 -69 -31 -93
-30 -118 3 -50 16 35 19 38 14 14 -13 -67 -85 -191 -157 -272 -152 -170 -303
-279 -461 -333 -135 -46 -262 -81 -278 -76 -7 2 -41 7 -74 10 l-60 6 40 -22
40 -21 -45 -12 c-25 -6 -55 -17 -67 -23 -12 -7 -35 -12 -52 -12 -16 0 -31 -4
-33 -9 -1 -5 -25 -11 -53 -15 -27 -3 -84 -15 -125 -27 -80 -22 -86 -23 -142
-13 -55 9 -230 187 -265 270 -39 92 -39 98 16 235 52 131 91 257 91 296 0 13
4 23 8 23 21 0 40 -40 45 -95 4 -33 11 -93 17 -133 9 -61 8 -82 -6 -135 -38
-141 -44 -181 -33 -217 21 -65 103 -155 170 -185 33 -15 39 -15 90 4 111 41
275 104 316 122 36 16 50 17 99 8 39 -7 64 -7 78 -1 12 6 41 16 65 24 44 13
68 38 37 38 -20 0 -56 39 -56 61 0 10 9 25 21 33 13 9 18 19 14 27 -5 7 -4 10
2 6 7 -4 10 3 9 18 l-1 24 -30 -27 c-16 -15 -5 0 26 33 31 33 64 75 73 92 22
43 20 99 -3 137 -11 17 -105 116 -210 218 -104 103 -184 189 -178 191 22 8
-72 28 -100 21 -55 -11 -116 -49 -200 -123 -46 -40 -95 -75 -108 -76 -22 -3
-24 1 -30 81 -4 46 -5 113 -3 149 2 36 0 59 -4 52 -12 -22 -38 -196 -38 -254
0 -29 -4 -53 -8 -53 -5 0 -18 13 -30 29 -20 28 -21 35 -11 113 42 347 216 647
479 825 93 63 236 124 345 148 80 18 126 17 52 -1z m-1437 -33 c67 -17 71 -19
35 -20 -22 -1 -54 3 -70 7 -33 9 -95 -3 -95 -18 0 -6 4 -10 10 -10 5 0 -6 -28
-24 -62 -19 -35 -53 -124 -77 -198 -46 -145 -46 -146 -55 -137 -3 3 8 47 25
98 17 51 29 94 28 96 -5 4 -82 -211 -97 -270 -7 -26 -10 -50 -7 -53 3 -3 11
20 18 51 7 31 16 58 21 61 9 6 5 -18 -18 -101 -22 -79 -44 -247 -38 -285 3
-19 10 -47 15 -61 12 -30 18 -203 7 -186 -4 7 -8 21 -9 32 0 12 -3 15 -6 7 -3
-8 1 -42 8 -75 12 -59 30 -86 57 -87 19 0 14 44 -8 63 -18 15 -20 27 -18 94 3
81 3 80 67 104 18 7 47 24 64 38 19 16 29 20 25 10 -12 -30 -81 -265 -108
-364 -15 -58 -31 -99 -38 -98 -6 2 -41 8 -77 15 l-66 13 8 30 c4 16 7 113 5
213 -4 290 33 510 138 811 56 161 83 214 138 265 43 41 43 41 142 17z m1847
-53 c-28 -47 -112 -138 -127 -138 -10 0 -60 74 -60 87 0 5 14 -8 30 -27 l29
-35 36 35 c20 19 53 57 72 83 43 58 55 55 20 -5z m-2573 -30 l19 -33 -41 39
c-23 22 -39 43 -36 48 8 12 35 -13 58 -54z m762 19 c2 -2 9 -29 14 -59 11 -57
1 -157 -20 -212 -5 -14 -30 -98 -55 -186 -25 -89 -60 -189 -77 -223 -18 -34
-31 -66 -30 -70 1 -4 -20 -30 -47 -57 -79 -79 -121 -65 -121 38 0 63 25 206
52 300 16 55 18 76 10 84 -9 9 -7 17 7 32 10 12 31 62 46 111 30 101 84 224
106 241 20 17 50 21 83 12 16 -4 30 -9 32 -11z m-2563 -90 c45 -86 84 -193 89
-239 3 -32 2 -33 -36 -36 -36 -3 -38 -5 -32 -30 21 -101 28 -226 17 -338 -6
-66 -14 -130 -17 -143 -7 -24 -7 -24 52 -16 32 3 62 10 66 14 18 17 30 132 25
236 -13 241 -48 384 -135 545 -39 74 -42 82 -19 61 14 -13 49 -69 77 -125 73
-145 94 -249 94 -476 0 -157 -2 -180 -21 -221 -20 -46 -21 -47 -79 -53 -33 -4
-69 -10 -81 -13 -22 -5 -22 -4 -9 22 50 97 42 348 -18 581 -33 126 -116 280
-146 268 -11 -4 -12 -2 -4 6 10 10 78 27 119 29 15 1 29 -17 58 -72z m-235
-57 c2 -12 -29 -23 -145 -48 -81 -19 -167 -40 -191 -49 -77 -27 -66 -8 17 30
81 37 257 87 296 84 11 -1 21 -9 23 -17z m4387 -33 c-62 -45 -203 -194 -233
-247 -18 -30 -32 -48 -32 -39 0 19 51 101 97 154 30 35 181 156 193 154 3 0
-8 -10 -25 -22z m-2255 -27 c0 -11 -2 -20 -4 -20 -2 0 -6 9 -9 20 -3 11 -1 20
4 20 5 0 9 -9 9 -20z m-352 -12 c25 -25 11 -36 -55 -48 -151 -26 -207 -29
-225 -10 -10 11 -26 16 -42 13 -19 -4 -26 -1 -26 10 0 17 16 21 135 36 107 13
199 13 213 -1z m359 -150 c-2 -24 -4 -5 -4 42 0 47 2 66 4 43 2 -24 2 -62 0
-85z m693 45 c-15 -71 -60 -216 -66 -211 -2 2 13 66 33 141 38 139 54 175 33
70z m267 -5 c-3 -8 -6 -5 -6 6 -1 11 2 17 5 13 3 -3 4 -12 1 -19z m-3067 -11
c0 -9 -52 -26 -162 -51 -266 -62 -268 -62 -268 -32 0 15 73 38 225 71 128 27
205 32 205 12z m5759 -23 c188 -27 364 -82 502 -155 66 -36 103 -69 76 -69
-11 0 -18 -12 -22 -37 -4 -21 -38 -101 -76 -178 l-69 -140 -72 -24 c-94 -31
-151 -29 -230 9 -64 31 -61 31 27 -1 80 -29 164 -21 221 21 11 8 56 79 98 157
75 137 77 143 66 178 -11 35 -24 46 -74 65 -34 13 -33 5 2 -14 l27 -15 -35 5
c-19 3 -41 7 -47 10 -23 6 -14 -12 12 -26 14 -7 23 -15 21 -17 -2 -3 -18 3
-35 12 -17 8 -31 13 -31 10 0 -2 22 -16 49 -30 52 -26 81 -57 81 -86 0 -30
-49 -78 -92 -90 -45 -12 -155 7 -235 42 -23 10 -43 16 -43 13 0 -3 16 -12 35
-20 19 -8 35 -18 35 -23 0 -16 -37 -51 -54 -51 -10 0 -14 -4 -11 -10 3 -5 -1
-10 -9 -10 -11 0 -16 -10 -16 -31 l0 -32 -55 7 c-30 3 -65 11 -79 17 -24 11
-25 16 -25 89 0 124 -42 192 -146 235 -62 27 -180 45 -283 45 -165 0 -458 -56
-554 -106 -64 -33 -34 -4 54 53 172 111 295 162 473 194 130 23 370 25 514 3z
m-6418 -34 c17 -9 49 -68 49 -90 0 -5 -8 -6 -18 -3 -10 2 -28 25 -40 49 -29
60 -29 64 9 44z m3689 -107 c-50 -199 -170 -484 -264 -625 -64 -96 -93 -149
-106 -195 -12 -40 -32 -55 -45 -34 -8 14 37 129 69 175 14 21 26 44 26 51 0 7
9 19 20 26 32 23 91 130 80 145 -8 8 -4 23 11 50 30 51 29 51 39 34 8 -13 10
-12 10 3 0 28 -1 32 -11 30 -10 -3 25 89 50 132 10 17 24 29 30 27 7 -1 10 1
7 6 -3 5 5 29 18 54 12 24 36 85 52 135 36 111 43 104 14 -14z m-3736 35 c14
-29 27 -71 30 -93 l6 -40 -15 30 -16 30 4 -32 c2 -22 -1 -33 -9 -33 -8 0 -11
6 -7 17 5 14 1 15 -27 10 -18 -4 -53 -7 -77 -7 -37 0 -44 -3 -39 -16 3 -8 2
-12 -4 -9 -6 3 -10 11 -10 17 0 5 -8 26 -17 45 l-17 36 30 24 c29 23 121 73
135 73 4 0 19 -24 33 -52z m-220 -104 c11 -29 6 -40 -19 -42 -28 -2 -31 8 -13
38 15 24 24 25 32 4z m-83 -49 c0 -10 -263 -64 -316 -65 -65 -1 -3 20 145 49
162 31 172 32 171 16z m1054 -25 c-3 -5 -14 -10 -23 -10 -15 0 -15 2 -2 10 20
13 33 13 25 0z m5202 0 c80 -11 188 -38 181 -45 -2 -2 -46 5 -98 15 -64 13
-141 20 -235 21 -91 1 -126 4 -100 9 62 11 166 11 252 0z m1180 -145 c-21 -41
-42 -74 -45 -71 -4 2 -24 11 -44 21 -21 9 -38 22 -38 27 0 5 21 45 48 88 l47
79 35 -35 35 -34 -38 -75z m-6467 124 c0 -6 -96 -19 -240 -33 -30 -3 -71 -2
-90 3 -31 8 -27 9 35 11 39 1 113 7 165 14 106 14 130 15 130 5z m-1320 -24
c0 -10 -10 -15 -26 -15 -22 0 -25 2 -14 15 7 8 19 15 26 15 8 0 14 -7 14 -15z
m459 -14 l20 -28 -41 20 c-42 21 -42 21 -1 36 1 1 11 -12 22 -28z m61 3 c0 -8
-4 -14 -10 -14 -5 0 -10 9 -10 21 0 11 5 17 10 14 6 -3 10 -13 10 -21z m5611
-4 c-35 -11 -69 -16 -75 -12 -6 3 14 12 44 18 85 18 102 15 31 -6z m-6034 4
c-3 -3 -12 -4 -19 -1 -8 3 -5 6 6 6 11 1 17 -2 13 -5z m-40 -10 c-3 -3 -12 -4
-19 -1 -8 3 -5 6 6 6 11 1 17 -2 13 -5z m5479 -44 c24 -22 63 -61 86 -87 64
-70 1 -23 -82 61 -71 72 -73 90 -4 26z m1384 30 c21 -11 55 -92 47 -113 -5
-13 122 -146 171 -179 33 -21 36 -47 11 -74 -18 -20 -19 -22 -3 -28 9 -4 15
-9 12 -12 -3 -2 -49 16 -103 41 -54 25 -103 45 -110 45 -7 0 -18 7 -25 15 -10
12 -9 26 9 71 11 31 21 70 21 87 0 34 -31 110 -49 121 -11 7 -16 36 -5 36 3 0
14 -4 24 -10z m-6225 -30 c-4 -12 -9 -19 -12 -17 -3 3 -2 15 2 27 4 12 9 19
12 17 3 -3 2 -15 -2 -27z m7645 -12 c63 -23 117 -43 119 -45 3 -2 -10 -20 -27
-41 -44 -51 -138 -210 -183 -309 -34 -72 -41 -81 -60 -76 -21 6 -22 7 -3 13
11 5 29 32 43 65 28 68 21 80 -49 88 -65 8 -112 18 -132 29 -14 7 -19 3 -24
-16 -3 -14 -12 -30 -20 -37 -11 -9 -14 -7 -14 13 0 47 27 114 85 213 67 114
94 145 127 145 13 0 75 -19 138 -42z m-7756 12 c32 -5 63 -14 70 -20 9 -10 4
-11 -23 -6 -18 3 -48 6 -66 6 -19 0 -43 9 -56 21 -21 18 -21 20 -4 13 11 -4
46 -10 79 -14z m7300 -9 c3 -5 -1 -11 -9 -15 -9 -3 -15 0 -15 9 0 16 16 20 24
6z m137 -11 l60 0 -25 -33 c-14 -18 -37 -59 -51 -90 -24 -52 -29 -57 -53 -51
-28 6 -151 63 -156 73 -2 3 7 23 21 45 18 28 28 35 36 27 18 -18 38 -13 59 15
12 15 26 23 35 20 8 -3 41 -6 74 -6z m-2972 -52 c-3 -2 -58 -55 -124 -118 -65
-63 -110 -104 -100 -90 18 23 87 104 103 123 17 18 108 86 116 87 5 0 7 -1 5
-2z m-3589 -38 c0 -5 -6 -10 -12 -10 -7 0 -65 -5 -128 -10 -68 -6 -150 -6
-200 -1 l-85 8 130 3 c107 2 201 8 283 18 6 1 12 -2 12 -8z m-433 -6 c-3 -3
-12 -4 -19 -1 -8 3 -5 6 6 6 11 1 17 -2 13 -5z m4106 -16 c12 -6 33 -23 47
-37 14 -14 92 -91 173 -170 141 -137 184 -186 104 -120 -40 33 -46 32 -21 -6
18 -28 13 -55 -12 -55 -12 0 -15 6 -10 23 5 19 -19 46 -156 180 l-163 158 -33
-17 c-35 -18 -222 -206 -222 -223 0 -6 9 -15 20 -21 13 -7 20 -21 20 -40 0
-33 10 -45 88 -105 28 -22 50 -46 49 -54 -1 -8 23 -34 53 -59 30 -25 59 -55
65 -66 6 -12 20 -25 33 -31 12 -5 22 -13 22 -18 0 -4 -9 -3 -20 3 -11 6 -26 8
-32 4 -6 -4 -8 -3 -5 3 4 6 1 13 -7 16 -11 4 -13 -1 -10 -21 4 -24 3 -25 -10
-9 -7 9 -18 17 -24 17 -7 0 -41 27 -78 60 -36 33 -71 57 -77 53 -5 -3 -7 -1
-4 4 4 6 0 13 -8 17 -22 8 -68 108 -53 117 8 5 3 21 -15 52 -15 25 -27 55 -27
66 0 33 246 290 278 291 7 0 23 -5 35 -12z m-2612 -12 c6 4 8 -21 4 -68 -5
-55 -2 -98 14 -173 37 -181 40 -263 8 -236 -8 6 -12 23 -9 42 5 32 -23 206
-38 244 -7 15 -9 8 -9 -25 -1 -25 -13 -82 -27 -128 l-26 -82 -33 6 c-19 3 -42
1 -52 -5 -17 -10 -17 -10 2 -11 11 0 27 -5 35 -10 11 -7 2 -10 -32 -10 -34 0
-48 4 -48 13 0 8 -9 22 -20 32 -20 18 -20 18 10 37 17 10 34 26 37 35 10 26
-16 181 -37 223 -22 44 -36 56 -86 75 l-39 15 40 -6 c22 -3 58 -7 80 -10 22
-2 52 -6 67 -9 20 -3 30 1 38 15 11 21 40 28 40 9 0 -6 -5 -19 -10 -30 -6 -10
-7 -19 -2 -19 14 0 32 23 32 41 0 18 43 52 48 38 2 -5 8 -6 13 -3z m6008 -46
c6 -28 11 -59 11 -68 0 -22 -52 -193 -57 -188 -3 2 5 34 16 71 24 78 26 114 8
139 -25 34 -64 1 -135 -112 -36 -56 -67 -101 -69 -98 -9 8 107 222 143 264 49
58 69 56 83 -8z m-6666 10 c58 -33 57 -41 -1 -10 -47 24 -69 40 -59 40 4 0 31
-13 60 -30z m127 -74 c0 -46 -3 -56 -20 -61 -31 -10 -40 2 -40 51 0 37 4 46
23 54 36 14 37 13 37 -44z m3112 -83 c-17 -21 -45 -51 -63 -68 -28 -25 -30
-26 -14 -5 25 32 98 110 103 110 2 0 -10 -17 -26 -37z m2546 30 c-14 -2 -32
-11 -38 -19 -7 -8 -17 -14 -22 -14 -7 0 -6 5 1 13 6 8 9 16 6 18 -2 3 15 5 38
6 24 0 30 -1 15 -4z m172 -25 c54 -33 80 -61 68 -74 -4 -3 -21 6 -39 20 -17
15 -49 36 -70 47 -38 19 -51 39 -26 39 7 0 37 -15 67 -32z m-829 -38 c33 -17
62 -37 65 -45 7 -17 -31 -84 -78 -137 l-33 -38 -60 25 c-33 14 -66 25 -73 25
-8 0 -12 3 -10 8 5 12 123 191 126 191 1 1 30 -13 63 -29z m-4802 -22 c5 -13
12 -38 16 -55 6 -30 4 -33 -17 -33 -27 0 -62 33 -72 67 -10 31 0 43 35 43 21
0 32 -6 38 -22z m-1774 -5 c-86 -18 -203 -47 -215 -54 -24 -13 65 -11 192 5
62 8 143 17 179 21 74 7 73 8 99 -90 5 -22 27 -87 49 -145 l39 -105 113 -7
c63 -4 141 -12 175 -18 33 -5 66 -10 71 -10 6 0 28 30 49 68 34 62 99 167 114
185 3 4 76 -27 160 -70 85 -42 149 -78 143 -80 -6 -2 -29 4 -50 15 -21 11 -56
25 -78 32 -22 7 -58 22 -80 32 -22 11 -34 14 -27 7 6 -7 12 -27 12 -44 0 -17
8 -42 17 -55 22 -31 22 -45 5 -90 -8 -19 -16 -57 -19 -85 -2 -27 -9 -65 -15
-84 -9 -30 -8 -36 8 -49 18 -14 18 -14 -1 -7 -64 23 -227 57 -340 71 -421 51
-870 -105 -1201 -419 -241 -227 -405 -522 -469 -840 -49 -249 -43 -456 21
-707 50 -194 119 -360 218 -525 38 -64 42 -89 23 -144 -17 -47 -59 -59 -218
-60 -122 -2 -169 -11 -169 -33 0 -5 19 -9 43 -10 23 -1 2 -4 -48 -7 -49 -4
-92 -5 -95 -3 -2 1 53 60 123 130 l126 127 -34 53 c-29 47 -71 139 -89 195 -8
25 -87 22 -236 -8 -67 -14 -126 -23 -130 -20 -12 8 -56 143 -94 293 l-34 133
22 9 c11 4 88 35 170 69 82 33 154 61 160 61 7 0 11 42 11 132 0 73 3 147 7
164 l7 31 -170 74 -170 74 6 65 c7 74 26 157 62 278 21 72 27 82 44 77 10 -4
95 -14 189 -23 l171 -17 46 85 c25 47 65 113 88 147 l43 61 -51 64 c-28 34
-79 96 -114 136 -35 40 -63 81 -63 91 0 27 269 311 295 311 4 0 28 -19 54 -42
61 -55 214 -158 235 -158 8 0 43 20 78 44 67 47 252 145 357 189 55 24 62 30
58 50 -5 19 -24 150 -42 284 -5 37 -10 43 -46 57 -44 18 -82 20 -125 7 -16 -4
-64 -17 -107 -26 -59 -14 -76 -22 -72 -33 3 -8 10 -77 15 -154 11 -156 1 -212
-18 -101 -23 131 -42 297 -35 304 24 21 278 80 393 92 50 5 189 6 165 0z
m1588 -163 c37 -51 38 -53 8 -25 -40 38 -89 122 -96 166 -5 26 0 21 20 -26 15
-33 45 -85 68 -115z m-1188 138 c98 -21 136 -44 193 -118 35 -46 48 -71 41
-76 -8 -4 -9 -3 -5 5 7 11 -32 33 -46 25 -3 -2 -18 9 -31 26 -14 16 -30 30
-36 30 -5 0 -13 9 -16 20 -4 11 -11 18 -16 14 -5 -3 -7 -14 -4 -24 3 -10 0
-20 -9 -23 -10 -4 -13 3 -12 26 l1 32 -78 10 c-68 9 -81 13 -92 35 -8 14 -14
29 -15 33 0 8 38 4 125 -15z m6595 14 c0 -4 -20 -28 -45 -52 -37 -36 -46 -41
-59 -30 -9 7 -13 17 -10 22 4 6 11 3 16 -7 9 -15 14 -13 44 16 19 18 34 39 34
46 0 7 5 13 10 13 6 0 10 -4 10 -8z m540 -78 c0 -17 9 -43 21 -57 19 -26 139
-89 192 -102 26 -7 46 -35 24 -35 -18 0 -219 98 -239 117 -21 19 -33 73 -23
110 5 21 8 24 16 12 5 -7 9 -28 9 -45z m-3213 -6 c-3 -7 -5 -2 -5 12 0 14 2
19 5 13 2 -7 2 -19 0 -25z m0 -40 c-3 -8 -6 -5 -6 6 -1 11 2 17 5 13 3 -3 4
-12 1 -19z m2471 -91 c-70 -119 -64 -111 -78 -102 -12 7 29 85 88 168 59 82
53 41 -10 -66z m-6013 53 c-10 -11 -23 -20 -29 -20 -6 1 0 10 13 20 30 26 39
26 16 0z m2595 -5 c30 -7 44 -13 30 -13 -24 0 -115 25 -95 27 6 0 35 -6 65
-14z m-90 -17 c19 -6 51 -17 70 -24 34 -13 32 -13 -41 -11 -42 1 -72 5 -65 9
6 5 -4 5 -21 2 -28 -6 -33 -4 -33 13 0 11 3 23 7 26 6 7 13 6 83 -15z m3169
-4 c100 -30 125 -48 111 -75 -6 -10 -16 -16 -24 -13 -7 3 -20 -1 -27 -8 -36
-36 -109 -68 -152 -68 -29 0 -53 -7 -68 -19 l-22 -18 48 -6 c39 -4 55 -12 77
-36 15 -17 28 -39 27 -49 0 -10 -3 -12 -6 -4 -2 6 -10 9 -16 5 -7 -4 -8 0 -3
12 6 16 4 16 -11 4 -11 -9 -14 -10 -9 -1 4 7 2 12 -7 12 -18 0 -34 -34 -42
-87 -7 -45 -41 -98 -114 -178 -25 -28 -82 -95 -126 -148 -44 -53 -83 -97 -87
-97 -4 0 -33 -25 -65 -55 -32 -30 -70 -66 -85 -79 l-28 -25 0 25 c0 14 39 91
86 172 77 132 116 190 242 369 20 29 54 79 75 112 20 32 53 78 72 101 19 23
35 53 35 67 0 13 5 34 11 46 31 60 -118 -132 -161 -208 -19 -33 -69 -108 -111
-167 -42 -59 -109 -161 -148 -227 -39 -67 -76 -120 -83 -118 -6 1 -13 -4 -16
-12 -3 -9 0 -11 8 -6 9 6 11 4 5 -4 -5 -8 -11 -9 -17 -3 -6 6 -4 21 7 42 9 17
14 34 12 37 -3 2 -39 -62 -81 -144 -74 -146 -118 -214 -131 -202 -3 4 20 53
51 110 258 471 296 533 417 694 129 171 226 275 255 275 8 0 53 -12 101 -26z
m-2971 -1 c-10 -2 -26 -2 -35 0 -10 3 -2 5 17 5 19 0 27 -2 18 -5z m-1678 -41
l125 -7 -85 -6 c-81 -5 -181 8 -198 26 -4 5 2 5 13 0 11 -4 76 -10 145 -13z
m2821 1 c13 -16 12 -17 -3 -4 -10 7 -18 15 -18 17 0 8 8 3 21 -13z m-1415 -7
c3 -8 13 -12 22 -9 13 4 14 3 3 -5 -10 -7 -11 -14 -2 -31 10 -17 9 -21 -3 -21
-22 0 -46 29 -46 56 0 26 17 33 26 10z m2602 -39 c-26 -39 -83 -103 -118 -132
-16 -13 -13 -7 9 20 18 22 54 66 79 97 50 62 68 71 30 15z m-2498 9 c0 -2 -3
-11 -6 -20 -9 -23 -24 -20 -24 4 0 11 7 20 15 20 8 0 15 -2 15 -4z m-1300 -37
c18 -33 7 -41 -12 -9 -9 17 -13 30 -8 30 5 0 14 -9 20 -21z m1536 -55 c-3 -8
-17 -14 -31 -14 -15 0 -24 4 -20 10 4 6 10 8 15 5 11 -7 29 26 32 57 1 14 3
10 5 -10 3 -19 2 -40 -1 -48z m-1021 30 c23 -24 10 -31 -76 -43 -41 -6 -82
-13 -91 -16 -17 -7 -40 35 -29 53 4 6 42 13 86 15 44 1 83 4 87 5 4 1 14 -5
23 -14z m4116 -170 c-39 -76 -69 -139 -66 -142 2 -3 -4 -17 -14 -31 -10 -14
-58 -96 -106 -181 -111 -194 -231 -380 -246 -380 -6 0 -1 16 12 38 12 20 44
73 70 118 26 45 58 99 72 120 42 68 134 227 161 282 15 28 31 52 36 52 6 0 10
6 10 13 0 14 106 235 123 255 7 9 13 10 15 3 2 -6 -28 -72 -67 -147z m-4561
-107 c5 -62 9 -139 9 -172 -2 -47 -4 -38 -10 43 -7 85 -25 202 -54 359 -2 15
6 -5 20 -45 16 -46 29 -116 35 -185z m1210 176 c0 -7 9 -18 20 -25 22 -14 26
-38 9 -55 -6 -6 -11 -27 -12 -47 0 -20 -4 -31 -8 -24 -4 7 -12 -5 -17 -28 -18
-67 -62 -238 -68 -259 -4 -16 -3 -17 5 -5 9 13 11 12 11 -5 0 -11 -5 -27 -10
-35 -8 -13 -10 -12 -10 4 0 33 -11 11 -16 -34 -3 -23 -12 -62 -20 -85 -8 -24
-11 -51 -7 -61 5 -13 3 -15 -7 -9 -8 5 -11 4 -6 -3 4 -6 4 -22 1 -35 -5 -19
-11 -24 -28 -19 -12 3 -27 9 -33 13 -6 5 -14 6 -17 2 -22 -21 -12 46 28 198
26 96 69 262 97 369 27 107 53 199 56 205 6 9 31 -39 32 -62z m1093 24 c20
-20 23 -27 18 -55 0 -5 -10 -18 -21 -30 -21 -22 -26 -22 -95 10 -18 8 -23 33
-17 84 1 7 22 12 48 12 35 1 51 -4 67 -21z m-1028 -341 c-45 -179 -90 -346
-99 -372 -9 -26 -16 -56 -16 -66 0 -10 -4 -18 -10 -18 -5 0 -10 2 -10 4 0 18
54 269 74 341 81 304 98 359 116 395 11 22 22 40 24 40 2 0 -33 -146 -79 -324z
m-1139 152 c12 -86 15 -143 9 -245 -4 -73 -11 -133 -15 -133 -4 0 -5 60 -2
133 4 113 -4 236 -24 372 -4 27 -3 28 5 8 6 -13 18 -73 27 -135z m5207 121
c56 -30 187 -141 187 -160 0 -26 -6 -25 -64 20 -90 68 -104 74 -164 74 -79 0
-205 -44 -277 -98 -16 -12 -38 -21 -47 -19 -9 1 -25 -8 -35 -19 l-18 -22 23
19 c34 29 26 14 -10 -20 -18 -16 -26 -21 -19 -11 21 26 4 20 -39 -15 -28 -22
-37 -35 -30 -43 7 -8 0 -21 -21 -41 -37 -35 -79 -91 -59 -79 8 5 4 -6 -9 -23
-13 -19 -27 -29 -34 -26 -7 4 -9 4 -5 0 7 -8 0 -18 -34 -57 -10 -10 -18 -30
-18 -43 0 -27 28 -56 38 -40 4 6 23 20 42 32 40 24 234 220 295 297 80 103 95
115 139 114 51 -1 88 -11 93 -25 2 -6 -80 -94 -182 -196 -102 -101 -185 -190
-185 -197 0 -11 3 -11 15 -1 24 20 18 5 -7 -16 -14 -12 -18 -14 -13 -4 13 23
1 10 -49 -55 -26 -33 -49 -71 -52 -85 -3 -14 -9 -33 -15 -42 -5 -10 -9 -25 -9
-33 0 -8 -4 -15 -9 -15 -15 0 -99 100 -138 164 -35 57 -36 60 -24 105 31 118
113 234 254 360 133 120 226 169 266 142 12 -8 13 -12 1 -26 -12 -15 -11 -15
13 -4 15 7 24 15 22 19 -5 8 40 52 70 68 26 15 81 15 108 1z m-3378 -47 c-11
-50 -90 -156 -386 -518 -58 -71 -114 -136 -124 -144 -18 -14 -18 -13 1 18 10
18 37 57 58 85 251 330 382 508 408 553 32 59 56 61 43 6z m-5055 12 c0 -4
-48 -56 -107 -117 -60 -61 -129 -133 -154 -159 -27 -28 -55 -48 -68 -48 -11 0
-21 3 -21 6 0 13 99 133 182 220 84 87 96 95 156 103 6 0 12 -2 12 -5z m6564
-15 c-10 -17 -220 -114 -274 -127 -115 -29 -172 -36 -181 -21 -5 8 -8 21 -8
29 0 8 5 4 10 -9 5 -13 15 -21 23 -18 7 3 60 15 116 27 110 23 201 58 236 91
18 16 38 26 82 38 2 1 0 -4 -4 -10z m-6144 -65 c-19 -21 -50 -37 -50 -25 0 6
12 17 28 25 35 19 37 19 22 0z m4724 -17 c1 -8 7 -21 13 -28 5 -8 27 -39 48
-69 21 -30 49 -65 64 -77 22 -19 24 -24 11 -33 -8 -5 -37 -10 -64 -10 -39 0
-56 -6 -89 -32 -48 -39 -129 -61 -163 -46 l-22 10 31 48 c18 27 49 72 69 102
29 42 38 64 40 105 3 51 11 67 21 41 3 -9 7 -7 12 5 8 20 25 11 29 -16z
m-2613 -16 c7 -10 20 -16 30 -14 10 3 21 -3 28 -15 10 -19 9 -19 -24 -9 -37
11 -33 13 -164 -81 -15 -10 -21 -8 -42 15 -13 16 -20 25 -15 21 4 -4 18 4 30
18 19 22 121 83 138 84 4 0 13 -8 19 -19z m1172 -41 c27 -1 29 -2 14 -11 -10
-6 -25 -8 -33 -5 -9 3 -12 1 -9 -4 3 -6 2 -10 -2 -10 -5 0 -64 -7 -132 -15
-126 -16 -150 -13 -138 18 4 11 31 17 104 22 54 3 107 7 118 9 11 2 26 2 33 0
8 -2 28 -4 45 -4z m5056 -78 c127 -126 191 -243 191 -346 0 -23 -7 -68 -15
-101 -40 -167 -1 -278 132 -376 30 -23 52 -43 50 -45 -9 -9 -113 64 -145 100
-68 78 -72 94 -69 303 l2 188 -33 64 c-20 38 -66 97 -115 148 -79 81 -83 84
-110 74 -16 -6 -27 -8 -25 -4 3 5 11 23 18 41 8 17 20 32 27 32 7 0 48 -35 92
-78z m-689 -48 c-52 -53 -88 -93 -80 -88 8 4 -16 -22 -53 -59 -65 -65 -100
-81 -76 -34 29 54 268 277 297 277 4 0 -36 -43 -88 -96z m-6295 47 c192 -50
315 -105 473 -211 83 -55 282 -238 282 -259 0 -4 -31 22 -69 59 -168 163 -338
265 -576 345 -179 60 -358 75 -569 50 -120 -14 -170 -25 -117 -25 20 0 21 -1
7 -16 -20 -20 -21 -31 -1 -14 11 10 18 9 30 -4 14 -14 14 -16 -9 -22 -14 -3
-30 -3 -37 2 -7 4 -9 3 -5 -4 3 -5 0 -13 -6 -16 -7 -3 3 -4 22 -1 l35 5 -35
-14 c-20 -7 -51 -16 -70 -20 l-35 -6 35 14 c19 8 27 15 18 15 -9 1 -20 6 -23
11 -4 6 -3 10 2 9 19 -3 31 2 37 16 5 13 2 14 -15 4 -12 -6 -19 -7 -15 -1 11
19 -48 20 -102 1 -77 -27 -282 -135 -328 -174 l-39 -34 60 2 c52 2 64 6 90 32
38 38 76 61 73 43 -2 -7 -12 -21 -23 -31 -20 -18 -20 -18 5 -6 36 17 16 0 -70
-60 -41 -28 -95 -68 -119 -89 -25 -20 -42 -32 -38 -26 4 7 1 17 -7 23 -7 6
-17 26 -20 44 l-7 32 -104 -109 c-63 -67 -107 -121 -111 -138 -3 -16 -16 -39
-28 -51 -67 -67 -152 -271 -193 -464 -25 -116 -27 -146 -27 -323 1 -211 9
-270 55 -428 41 -139 60 -181 119 -257 27 -37 50 -74 50 -83 1 -17 29 -74 30
-59 0 11 199 -168 220 -197 13 -19 12 -20 -2 -8 -12 10 -18 9 -28 -3 -7 -8
-17 -12 -24 -9 -6 3 10 -15 36 -40 45 -45 80 -57 94 -35 3 6 -7 25 -22 42
l-29 32 30 -26 c17 -14 43 -35 59 -47 l29 -22 -76 0 -75 0 -72 72 c-211 211
-347 468 -411 778 -21 100 -24 142 -23 315 0 238 18 343 91 525 114 287 283
502 517 658 139 94 201 124 347 173 163 55 262 69 444 65 129 -3 167 -8 270
-35z m3921 2 c3 -16 11 -43 17 -62 l12 -34 85 -3 c47 -2 100 -6 118 -9 22 -4
32 -3 28 4 -4 5 4 31 16 56 21 44 25 46 55 42 44 -7 168 -70 163 -82 -3 -5 -7
-9 -10 -8 -67 29 -130 52 -150 56 -14 2 -19 2 -11 0 9 -4 4 -13 -17 -32 -16
-15 -35 -37 -41 -49 -6 -12 -17 -19 -24 -16 -7 2 -27 -2 -43 -11 -16 -8 -53
-15 -83 -15 -78 0 -300 -59 -331 -87 -13 -12 -11 -13 15 -8 21 5 14 -1 -22
-18 -71 -35 -156 -90 -231 -150 -68 -56 -66 -55 -167 -63 l-70 -6 38 32 c20
17 37 38 37 46 0 17 -17 19 -22 2 -3 -9 -58 71 -58 85 0 3 34 35 75 72 l75 67
46 -41 c26 -23 52 -41 58 -41 6 0 60 25 120 56 l108 56 -4 74 -3 74 80 19
c115 28 133 27 141 -6z m1725 -10 c-12 -20 -14 -14 -5 12 4 9 9 14 11 11 3 -2
0 -13 -6 -23z m1177 -23 c-1 -5 -126 -133 -277 -284 l-273 -276 133 -134 c161
-160 194 -181 299 -181 85 0 126 17 220 90 30 23 62 40 70 37 8 -3 70 -36 138
-74 67 -39 128 -67 135 -64 6 3 23 14 37 23 40 28 -123 -157 -185 -210 l-56
-49 -37 19 c-32 16 -63 18 -232 18 -299 1 -314 10 -543 335 -37 52 -76 107
-88 123 -13 16 -16 27 -8 27 6 0 93 80 193 178 100 99 243 231 318 295 75 65
140 121 143 127 8 13 18 13 13 0z m-628 -13 c0 -2 -15 -16 -32 -33 l-33 -29
29 33 c28 30 36 37 36 29z m-7057 -109 c-24 -12 -31 -28 -11 -28 6 0 8 -3 5
-6 -4 -4 -14 -1 -22 6 -15 12 -14 15 7 26 13 8 28 13 33 13 6 0 0 -5 -12 -11z
m2107 -33 l0 -33 -91 -7 c-49 -4 -91 -6 -92 -4 -1 2 -9 18 -19 36 l-16 31 76
7 c43 3 88 7 102 8 36 4 40 0 40 -38z m1608 30 c2 -2 -8 -20 -23 -39 l-27 -36
-98 0 -97 0 10 46 11 47 110 -7 c61 -4 112 -9 114 -11z m-574 -22 c-8 -35 -13
-40 -22 -27 -4 6 -19 14 -34 18 -47 11 -35 36 17 36 44 0 45 -1 39 -27z
m-4304 -118 c41 -92 24 -73 -35 40 -34 65 -40 82 -22 60 14 -16 40 -61 57
-100z m6820 105 c63 -6 119 -15 124 -20 5 -5 -1 -22 -14 -41 l-23 -32 -75 7
c-79 6 -91 12 -157 71 l-40 36 35 -5 c19 -3 87 -10 150 -16z m-5630 -5 c-7 -8
-20 -15 -29 -15 -11 0 -8 5 9 14 33 19 35 19 20 1z m70 5 c-8 -5 -19 -10 -25
-10 -5 0 -3 5 5 10 8 5 20 10 25 10 6 0 3 -5 -5 -10z m5438 -81 c36 -40 68
-89 58 -89 -3 0 -19 20 -36 45 -17 25 -38 45 -46 45 -8 0 -32 -11 -53 -26 -28
-18 -46 -23 -65 -18 -14 3 -26 10 -26 14 0 5 9 6 20 3 14 -4 33 6 60 31 22 20
42 36 45 36 3 0 22 -19 43 -41z m-466 -33 c26 -8 59 -22 75 -31 15 -9 20 -14
10 -11 -273 84 -527 40 -738 -125 -20 -16 -45 -29 -55 -29 -33 1 77 93 157
132 69 34 172 71 229 82 51 9 275 -3 322 -18z m-2302 -17 c-55 -14 -131 -21
-282 -25 -177 -6 -205 -9 -190 -21 16 -12 16 -13 0 -7 -10 3 -18 1 -18 -5 0
-6 -7 -11 -15 -11 -14 0 -19 11 -16 38 1 7 -9 12 -26 11 -21 0 -24 -2 -10 -7
16 -7 16 -9 -4 -25 -19 -17 -22 -17 -45 -2 -14 9 -22 20 -19 24 7 13 -19 21
-47 15 -22 -5 -22 -5 -3 8 15 10 104 14 365 18 190 3 354 6 365 7 11 0 -14 -8
-55 -18z m-829 -57 c6 -27 4 -32 -9 -27 -8 3 -25 -2 -38 -10 -13 -9 -24 -12
-25 -8 0 5 -3 19 -5 33 -7 39 3 52 38 48 28 -3 33 -8 39 -36z m4742 -28 c10
-13 25 -24 33 -24 23 0 35 -43 15 -52 -9 -4 -85 -7 -170 -7 -146 -1 -153 0
-139 17 8 9 26 36 38 60 l24 42 90 -6 c80 -6 93 -9 109 -30z m-4833 -19 c0
-12 -20 6 -31 28 l-11 22 21 -22 c11 -12 21 -25 21 -28z m2900 35 c-36 -11
-52 -11 -45 0 3 6 21 10 38 9 31 -1 31 -1 7 -9z m-5850 -116 c-16 -38 -36 -70
-44 -72 -9 -2 -16 -1 -16 1 0 10 82 148 86 144 2 -2 -9 -35 -26 -73z m4257 39
c15 -30 16 -28 -16 -38 -21 -7 -23 -5 -18 16 4 13 7 30 7 37 0 21 14 13 27
-15z m912 0 c-18 -24 -43 -42 -48 -37 -6 6 40 54 52 54 5 0 3 -8 -4 -17z
m-5594 -200 c-29 -75 -68 -243 -90 -385 -4 -24 -14 -42 -27 -49 -21 -11 -21
-10 -14 67 7 81 34 218 61 312 11 37 23 56 38 62 33 13 40 12 32 -7z m8144
-335 c2 -372 -10 -781 -20 -698 -4 30 -7 270 -8 533 -1 402 1 477 13 477 12 0
14 -52 15 -312z m197 284 c22 -11 59 -51 53 -55 -2 -1 -54 -1 -115 1 l-112 4
-6 30 c-3 16 -4 33 -2 37 6 10 159 -5 182 -17z m-5398 -209 l2 -223 -295 0
-295 0 0 -640 0 -640 -272 0 c-150 0 -279 4 -285 8 -10 6 -13 149 -15 638 l-3
629 -294 3 -294 2 6 113 c4 61 7 163 7 225 l0 112 868 -2 867 -3 3 -222z
m1867 188 c109 -47 199 -136 238 -234 l27 -68 1 -513 c0 -551 0 -545 -53 -650
-29 -58 -105 -128 -176 -163 -125 -63 -144 -64 -797 -61 -576 3 -592 4 -655
25 -126 43 -214 118 -271 231 l-34 66 -3 509 c-3 555 -3 562 56 670 34 62 119
142 184 172 120 55 114 54 783 52 l620 -2 80 -34z m2141 16 c130 -43 245 -159
284 -286 19 -59 20 -94 20 -551 0 -463 -1 -491 -20 -554 -40 -129 -149 -238
-287 -287 l-68 -24 -584 -3 c-384 -2 -608 1 -655 8 -144 22 -282 114 -339 226
-46 92 -49 125 -45 664 l3 505 32 67 c63 134 169 214 328 248 22 4 319 7 660
6 557 -1 625 -3 671 -19z m1064 -617 l0 -640 475 0 475 0 0 -225 0 -225 -757
2 -758 3 2 515 c1 283 2 671 3 863 l0 347 280 0 280 0 0 -640z m-689 432 c19
-57 3 -46 -36 25 -20 37 -44 77 -53 89 -10 11 4 -2 30 -30 26 -28 53 -66 59
-84z m-2151 -38 c0 -8 -4 -14 -10 -14 -5 0 -10 4 -10 9 0 5 -3 18 -7 28 -6 16
-5 16 10 4 9 -7 17 -20 17 -27z m4668 -16 c262 -178 410 -392 467 -673 58
-284 34 -546 -78 -885 -47 -141 -52 -151 -55 -113 -3 36 14 146 34 223 6 24 6
24 -8 6 -8 -10 -20 -16 -26 -12 -7 4 -14 -3 -18 -19 -3 -14 -8 -24 -10 -22 -2
2 5 39 16 83 21 80 52 262 66 389 5 45 9 59 12 40 2 -16 10 -38 18 -49 8 -11
15 -41 15 -66 1 -39 3 -36 11 25 5 39 7 129 5 200 -14 352 -173 637 -469 839
-36 24 -55 43 -51 52 8 20 19 18 71 -18z m-113 -234 c22 -20 33 -32 25 -28
-12 6 -12 4 1 -10 9 -10 23 -18 32 -20 25 -3 66 -46 60 -62 -3 -7 16 -45 41
-83 63 -95 101 -182 132 -303 25 -96 26 -110 21 -277 -4 -121 -12 -206 -26
-271 -27 -123 -37 -146 -72 -161 -31 -12 -119 -107 -119 -128 0 -6 -4 -11 -10
-11 -10 0 -1 31 20 69 20 38 71 261 86 380 26 198 1 374 -75 535 -59 126 -102
186 -201 279 l-91 85 42 25 c24 14 36 27 30 31 -6 4 -11 12 -11 17 0 14 68
-25 115 -67z m-9695 -26 c86 -47 85 -46 78 -54 -7 -6 -178 84 -213 111 -18 14
-16 14 20 0 22 -9 74 -34 115 -57z m1562 -34 c45 -4 75 -11 75 -18 0 -8 -86
-10 -308 -8 -266 2 -307 5 -303 17 5 13 43 15 234 15 125 0 261 -3 302 -6z
m1248 -5 c0 -11 80 -6 115 7 11 5 13 2 9 -10 -5 -14 -37 -16 -243 -18 l-236
-3 -6 -255 c-3 -140 -7 -257 -9 -260 -9 -17 -18 135 -19 328 l-1 222 195 0
c138 0 195 -3 195 -11z m7058 -124 c-3 -3 -9 2 -12 12 -6 14 -5 15 5 6 7 -7
10 -15 7 -18z m-9974 -460 c22 -115 64 -266 82 -292 13 -20 13 -26 1 -44 -14
-19 -17 -14 -50 68 -40 101 -61 172 -87 290 l-18 82 22 14 c24 17 24 19 50
-118z m10303 23 c-3 -7 -5 -2 -5 12 0 14 2 19 5 13 2 -7 2 -19 0 -25z m-1146
-244 l-8 -69 -2 62 c0 34 2 69 6 79 12 31 14 0 4 -72z m-4021 -268 c0 -2 -8
-10 -17 -17 -16 -13 -17 -12 -4 4 13 16 21 21 21 13z m-4700 -24 c0 -22 -92
-126 -149 -167 -35 -26 -40 -34 -35 -57 9 -43 -11 -33 -26 12 -12 37 -12 43 6
59 114 107 187 171 194 171 6 0 10 -8 10 -18z m4590 -97 c0 -6 -56 -35 -67
-35 -4 1 8 9 27 20 39 22 40 22 40 15z m-175 -55 c-11 -5 -33 -8 -50 -8 -29 1
-29 1 5 8 49 10 69 10 45 0z m5293 -124 c24 -6 32 -12 28 -24 -2 -10 -21 -116
-41 -237 -20 -121 -63 -362 -96 -536 -32 -174 -59 -320 -59 -324 0 -4 -7 -2
-15 5 -17 14 -19 76 -6 150 25 138 71 446 77 518 6 66 4 86 -8 100 -9 9 -17
24 -20 32 -7 24 -53 -188 -138 -642 l-22 -116 -244 -82 c-155 -52 -242 -86
-237 -93 4 -7 0 -8 -11 -4 -16 6 -342 -95 -356 -111 -5 -5 38 4 64 14 12 4 15
2 10 -9 -3 -8 4 -24 17 -36 l22 -20 -28 -11 c-15 -6 -30 -8 -33 -6 -2 3 -11
-1 -19 -9 -18 -19 -150 -58 -165 -49 -6 4 -8 3 -4 -4 6 -11 -31 -28 -41 -18
-6 6 -93 -26 -144 -54 -64 -35 -342 -127 -369 -122 -3 0 -18 -8 -35 -18 -36
-22 -256 -103 -262 -96 -2 2 12 9 31 16 20 6 36 16 36 22 0 6 7 7 16 4 8 -3
12 -2 9 3 -3 5 -1 13 5 16 7 4 7 11 2 18 -15 19 -21 57 -9 57 6 0 8 2 5 5 -2
3 -120 -33 -261 -80 -140 -46 -283 -91 -316 -100 -33 -8 -67 -18 -76 -21 -11
-5 -14 -2 -9 12 4 14 0 13 -16 -6 l-21 -25 20 42 c18 36 28 44 88 67 59 23
599 199 1018 333 459 146 1265 415 1270 423 9 15 81 395 135 717 17 98 32 188
35 201 l5 22 -317 1 c-175 1 -304 4 -288 6 17 1 55 6 85 10 l55 7 -85 7 c-135
11 -1757 19 -2060 10 -151 -4 -260 -8 -242 -9 17 -1 32 -6 32 -11 0 -6 17 -12
38 -14 37 -4 -1206 -10 -1853 -8 -877 1 -1217 5 -1105 11 161 10 160 10 125
21 -41 13 -2603 24 -2980 13 -194 -6 -275 -11 -230 -15 39 -3 66 -7 60 -9 -5
-2 10 -6 35 -10 25 -4 -124 -8 -330 -9 -206 -1 -386 -4 -399 -8 -22 -6 -23 -9
-18 -62 19 -176 150 -859 169 -877 7 -6 204 -73 438 -149 381 -122 780 -252
1530 -497 135 -44 283 -94 330 -110 148 -53 135 -46 116 -67 -9 -9 -16 -23
-16 -29 0 -7 -2 -12 -4 -12 -1 0 -185 61 -408 135 -223 74 -409 135 -413 135
-13 0 96 -84 144 -110 48 -27 64 -50 34 -50 -12 -1 -9 -5 12 -15 41 -19 28
-18 -28 1 -26 9 -45 20 -42 24 7 12 -32 23 -46 14 -8 -4 -9 -3 -5 4 7 12 -10
17 -46 14 -10 -1 -18 2 -18 7 0 11 -66 34 -78 27 -4 -2 -48 11 -98 29 -49 19
-82 35 -74 35 10 1 9 4 -5 10 -11 4 -31 6 -45 3 -19 -3 -21 -2 -11 5 11 8 4
13 -30 22 -24 6 -75 24 -114 39 -85 35 -129 49 -175 56 -56 9 -167 49 -147 53
18 4 23 27 7 37 -16 10 -11 35 7 35 9 0 14 2 11 5 -6 6 -303 107 -634 214
l-252 82 -6 37 c-8 45 -101 529 -115 592 -5 25 -9 34 -10 21 -1 -13 -11 -32
-23 -42 l-21 -19 17 -113 c53 -337 66 -485 46 -517 -12 -19 -12 -20 -49 180
-80 428 -161 924 -153 932 4 4 68 9 142 10 319 7 9678 1 9708 -6z m-283 -188
c-12 -54 -67 -343 -85 -450 -11 -65 -24 -128 -29 -140 -4 -13 -14 -54 -21 -93
-12 -65 -14 -68 -22 -40 -12 43 -2 143 43 434 27 172 37 257 30 264 -17 17
-1466 25 -5026 25 -3178 1 -4064 -4 -4081 -21 -4 -3 19 -159 50 -344 60 -361
64 -397 41 -348 l-15 30 4 -28 c2 -15 1 -25 -2 -22 -8 7 -66 295 -110 543
l-38 212 4633 0 4633 0 -5 -22z m-8412 -72 c57 -24 97 -89 97 -157 l0 -29 -93
0 -93 0 -11 30 c-11 30 -12 30 -86 30 -82 0 -107 -13 -107 -54 0 -34 19 -46
75 -46 78 0 234 -27 261 -45 49 -32 64 -72 64 -171 0 -104 -17 -141 -80 -178
-32 -19 -51 -21 -225 -21 -167 0 -194 2 -218 18 -44 29 -67 75 -67 135 l0 52
95 0 c94 0 95 0 95 -25 0 -14 8 -29 19 -35 25 -13 122 -13 155 0 23 8 26 15
26 54 0 25 -4 47 -9 50 -4 3 -66 9 -137 12 -141 7 -185 21 -224 71 -20 25 -21
37 -18 134 3 118 11 134 78 170 30 15 59 18 203 19 121 0 177 -4 200 -14z
m377 -106 l0 -120 121 0 121 0 -3 88 c-1 48 -2 102 -1 120 l2 32 95 0 95 0 0
-325 0 -325 -95 0 -95 0 0 125 0 125 -120 0 -120 0 0 -125 0 -125 -94 0 -93 0
-5 318 c-4 174 -4 320 -1 325 2 4 47 7 99 7 l94 0 0 -120z m1118 87 c69 -49
74 -68 70 -306 l-3 -208 -27 -35 c-50 -65 -78 -73 -301 -76 -195 -3 -200 -3
-250 22 -89 43 -92 54 -92 311 0 216 0 221 24 254 46 65 78 72 322 69 l216 -3
41 -28z m642 7 c19 -11 45 -35 57 -54 20 -29 23 -46 23 -140 0 -94 -3 -111
-23 -140 -41 -62 -76 -74 -222 -80 l-130 -5 -3 -102 -3 -103 -94 0 -95 0 0
326 0 326 228 -4 c208 -3 230 -5 262 -24z m640 0 c19 -11 45 -35 57 -54 20
-29 23 -46 23 -140 0 -94 -3 -111 -23 -140 -41 -62 -76 -74 -222 -80 l-130 -5
-3 -102 -3 -103 -94 0 -95 0 0 326 0 326 228 -4 c208 -3 230 -5 262 -24z m655
-52 l0 -74 -155 -1 -155 -2 -3 -47 -3 -48 140 0 141 0 0 -70 0 -70 -140 0
-140 0 0 -55 0 -55 160 0 160 0 0 -75 0 -75 -255 0 -255 0 0 325 0 325 253 -2
252 -3 0 -73z m545 71 c0 -1 25 -81 55 -177 30 -96 55 -176 55 -178 0 -1 -34
-2 -75 0 -71 3 -76 2 -84 -20 -9 -24 -7 -29 -64 167 -14 48 -15 49 -25 25 -5
-14 -19 -57 -31 -96 l-21 -70 -40 4 c-23 2 -61 -1 -85 -8 -35 -10 -46 -19 -60
-51 -10 -22 -19 -38 -21 -37 -1 2 20 68 47 148 27 80 60 180 75 222 l25 77
125 -2 c68 -1 124 -3 124 -4z m1278 -5 c1 -5 2 -38 2 -75 l0 -68 -145 3 -145
3 0 -60 0 -61 130 0 130 0 0 -72 0 -73 -137 4 c-94 3 -125 7 -98 11 38 7 38 7
8 9 -17 0 -34 5 -37 10 -8 13 -76 20 -126 13 -40 -6 -46 -10 -51 -37 -4 -16
-7 67 -8 185 l-1 215 238 0 c130 0 238 -3 240 -7z m195 5 l67 -6 0 -163 c0
-89 -4 -165 -9 -168 -5 -4 -45 -9 -88 -13 -43 -3 -81 -11 -85 -17 -4 -6 -8 76
-8 182 l0 192 28 0 c15 0 57 -3 95 -7z m356 -125 c-2 -143 -14 -387 -17 -326
-2 43 -17 51 -104 53 l-58 1 -2 -70 c-1 -39 -5 48 -8 194 l-5 265 40 6 c22 3
66 7 98 7 l57 2 -1 -132z m511 -34 c0 -158 -7 -235 -19 -216 -4 6 -30 6 -71 1
-35 -5 -70 -7 -77 -5 -8 3 -13 -8 -16 -32 -2 -20 -4 66 -5 191 l-2 228 95 -2
95 -3 0 -162z m555 -5 c46 -142 76 -250 59 -211 -8 16 -161 17 -166 0 -2 -6
-17 33 -33 88 -16 54 -32 105 -35 113 -5 8 -19 -21 -36 -75 l-29 -89 -73 -7
c-40 -4 -82 -13 -94 -19 -17 -9 -20 -9 -16 2 3 8 31 91 62 186 l57 172 82 3
c45 2 102 3 126 2 l43 -2 53 -163z m645 159 c0 -5 0 -39 0 -78 l0 -70 -89 0
-88 0 -7 -31 c-3 -17 -7 -73 -7 -123 -1 -50 -4 -79 -6 -63 -5 30 -24 33 -116
21 -37 -5 -47 -11 -49 -28 -2 -11 -8 20 -12 71 -4 50 -5 105 -1 122 l7 31
-101 0 -101 0 0 75 0 75 183 2 c293 5 387 3 387 -4z m550 -63 l0 -75 -150 0
-150 0 0 -50 0 -50 135 0 135 0 0 -49 c0 -28 -4 -52 -9 -55 -17 -11 -117 -13
-210 -4 -66 6 -105 5 -130 -3 -32 -11 -44 -13 -88 -18 -7 0 -14 -16 -15 -33
-1 -18 -5 64 -8 182 -3 118 -4 217 -3 220 0 3 112 6 247 7 l246 2 0 -74z
m-3360 -5 l0 -70 -145 0 -145 0 0 -60 0 -60 130 0 130 0 0 -72 0 -73 -126 3
c-113 3 -128 5 -143 24 -15 18 -24 19 -85 13 -55 -6 -69 -11 -75 -28 -12 -33
-21 67 -21 241 l0 152 240 0 240 0 0 -70z m3133 -307 c-13 -2 -33 -2 -45 0
-13 2 -3 4 22 4 25 0 35 -2 23 -4z m135 0 c-10 -2 -26 -2 -35 0 -10 3 -2 5 17
5 19 0 27 -2 18 -5z m49 1 c-3 -3 -12 -4 -19 -1 -8 3 -5 6 6 6 11 1 17 -2 13
-5z m-5863 -504 c38 -12 88 -41 131 -75 39 -30 97 -69 130 -87 l60 -33 1290 0
1290 0 60 24 c33 13 80 43 105 67 110 103 232 145 369 126 184 -26 306 -113
360 -256 24 -64 37 -146 23 -146 -5 0 -12 16 -15 35 -8 49 -60 154 -97 195
-29 32 -30 32 -12 5 10 -16 22 -36 26 -42 11 -20 -37 -16 -60 5 -29 28 -221
48 -266 28 -33 -14 -32 -14 47 -16 44 0 96 -7 116 -14 31 -11 133 -87 208
-155 l26 -23 -30 18 c-16 9 -55 36 -85 59 -93 71 -129 85 -217 85 -131 -1
-192 -45 -229 -166 -29 -97 -10 -182 58 -251 74 -76 193 -96 310 -55 68 25
148 38 148 25 0 -21 -60 -101 -98 -131 -86 -69 -227 -108 -327 -92 -89 15
-125 29 -184 74 -73 55 -136 143 -161 224 -29 91 -36 213 -17 274 22 71 0 47
-40 -43 l-36 -79 -91 0 -92 0 -2 28 c-2 35 -36 62 -77 62 -36 0 -60 -21 -70
-61 -6 -24 -13 -28 -63 -34 -69 -9 -433 -8 -519 1 -57 6 -63 9 -63 29 0 12 -7
28 -16 36 -13 11 -15 9 -12 -16 2 -22 -3 -32 -19 -40 -25 -13 -1079 -30 -1145
-19 -34 6 -38 10 -38 35 0 59 -75 90 -127 54 -28 -20 -40 -79 -22 -103 7 -9 2
-7 -12 6 -21 19 -37 22 -100 22 l-75 0 -13 51 c-8 30 -26 65 -43 83 l-30 31 6
-27 c45 -209 -33 -435 -176 -509 -40 -21 -54 -37 -15 -19 20 11 20 10 -2 -8
-37 -30 -138 -57 -206 -56 -81 1 -187 35 -262 84 -35 23 -63 45 -63 49 0 14
50 31 108 36 226 21 301 62 333 179 25 94 -22 236 -96 288 -77 54 -192 47
-302 -19 l-58 -34 39 40 c100 102 284 102 370 0 43 -50 75 -122 85 -191 l10
-63 -4 90 c-2 59 0 78 5 57 9 -40 56 -92 82 -92 26 0 68 44 68 72 0 13 -8 34
-17 47 -9 14 -11 21 -5 17 8 -5 10 2 5 26 -10 56 -21 68 -59 68 -60 0 -103
-33 -104 -79 0 -21 -4 -18 -30 22 -16 26 -46 57 -65 68 -19 12 -33 25 -30 29
9 15 -57 30 -132 30 -77 0 -143 -21 -143 -44 0 -6 -21 -29 -47 -51 -26 -21
-43 -34 -39 -27 5 8 -1 12 -17 12 -21 0 -24 4 -21 23 2 12 -9 -5 -26 -38 -16
-33 -30 -72 -30 -87 0 -16 -4 -28 -10 -28 -13 0 -13 1 4 81 18 85 46 140 103
200 68 73 153 115 268 133 54 8 157 -3 219 -24z m5863 -144 c0 -8 -13 -17 -28
-20 -14 -3 -39 -8 -54 -12 -48 -12 -19 14 33 30 26 8 47 15 48 15 0 1 1 -5 1
-13z m-7417 -47 c56 -17 68 -24 65 -39 -3 -15 9 -23 57 -39 53 -18 62 -19 75
-6 8 8 19 15 25 15 6 0 80 -23 165 -51 153 -51 153 -51 132 -70 -15 -13 -18
-19 -8 -20 8 0 9 -3 3 -5 -6 -2 -62 14 -125 36 -63 22 -188 65 -279 95 -91 30
-158 55 -150 55 8 1 4 6 -10 11 -19 8 -21 12 -11 19 11 6 10 9 -5 13 -10 2
-15 5 -11 6 5 0 40 -8 77 -20z m6284 -27 c-16 -11 -24 -40 -12 -44 6 -2 -29
-16 -77 -31 -48 -15 -91 -24 -97 -21 -5 3 -17 -1 -26 -9 -9 -8 -46 -24 -81
-36 -64 -21 -105 -28 -66 -11 19 8 19 9 -2 9 -13 1 -23 6 -23 12 0 6 -9 8 -22
3 -13 -3 -20 -4 -17 0 6 7 407 135 424 135 6 1 6 -2 -1 -7z m1126 -41 c-36
-21 -1010 -405 -1295 -511 -236 -88 -742 -270 -751 -270 -3 0 1 10 8 23 7 12
11 25 10 30 -1 4 0 7 2 7 2 0 93 32 202 71 110 38 341 120 514 180 487 170
660 233 995 360 285 108 355 133 315 110z m-8205 -94 c237 -90 618 -228 1025
-370 151 -52 370 -129 485 -171 116 -41 228 -81 250 -89 30 -11 39 -19 37 -33
-2 -10 4 -24 15 -32 17 -14 17 -14 -2 -7 -11 4 -31 11 -45 15 -31 10 -771 279
-860 313 -265 101 -1131 447 -1150 459 -29 18 34 -4 245 -85z m2433 26 c5 -18
-28 -29 -38 -12 -5 7 -6 17 -3 22 7 12 35 5 41 -10z m559 -39 c16 -25 16 -27
-2 -40 -26 -19 -91 -18 -99 2 -7 18 8 50 26 57 31 13 58 6 75 -19z m2015 9
c26 -24 22 -43 -13 -55 -23 -8 -27 -13 -17 -19 9 -6 7 -9 -9 -9 -38 0 -56 55
-27 84 20 21 43 20 66 -1z m-3202 3 c0 -2 -8 -10 -17 -17 -16 -13 -17 -12 -4
4 13 16 21 21 21 13z m666 -12 c18 -14 18 -15 -4 -4 -28 13 -45 4 -39 -21 3
-11 1 -17 -4 -13 -13 7 -11 28 3 42 16 16 20 15 44 -4z m4150 0 c-21 -20 -20
-32 1 -36 10 -2 -27 -18 -82 -37 -55 -19 -105 -36 -111 -38 -21 -8 -3 45 19
55 15 7 17 11 7 12 -13 1 152 58 173 59 5 1 1 -6 -7 -15z m-1676 -110 c0 -2
-12 -4 -27 -4 -21 0 -24 3 -14 9 13 8 41 5 41 -5z m157 -46 c28 -11 27 -12
-22 -19 -68 -10 -2261 -6 -2271 4 -5 4 -2 12 6 17 23 15 2252 13 2287 -2z
m115 -42 c29 -13 62 -34 73 -46 l20 -23 -20 8 c-11 4 -49 16 -85 26 -61 18
-123 19 -1235 19 -1236 0 -1239 0 -1325 -45 -33 -17 -40 -10 -12 12 29 23 95
55 87 43 -5 -9 1 -10 21 -6 16 4 566 7 1222 8 983 1 1192 4 1188 15 -7 18 6
16 66 -11z m1288 -190 c0 -7 -210 -79 -215 -74 -3 3 41 21 97 41 105 36 118
40 118 33z m-4912 -51 c46 -15 82 -29 79 -31 -5 -5 -178 53 -186 62 -3 4 1 5
9 2 8 -3 52 -17 98 -33z m2447 -9 c46 -20 75 -69 74 -126 -1 -37 -2 -41 -9
-20 -6 19 -8 20 -9 6 -2 -28 -67 -84 -107 -92 -54 -10 -111 11 -134 49 -12 19
-20 25 -20 16 0 -9 12 -34 26 -55 24 -36 25 -37 4 -19 -70 62 -63 189 14 236
37 23 112 25 161 5z m2225 -26 c-8 -5 -22 -9 -30 -9 -10 0 -8 3 5 9 27 12 43
12 25 0z m-4510 -22 c10 -6 7 -7 -10 -2 -14 3 -32 11 -40 16 -10 6 -7 7 10 2
14 -3 32 -11 40 -16z m1164 -169 c171 -56 419 -137 551 -181 132 -43 299 -97
370 -118 125 -37 132 -38 175 -25 25 8 128 41 230 74 102 33 320 103 485 156
165 53 369 119 453 148 138 46 155 50 175 37 12 -7 32 -19 45 -26 13 -7 19
-15 13 -18 -16 -10 -274 -96 -586 -195 -159 -51 -308 -99 -330 -106 l-40 -13
47 -1 c45 -1 149 23 383 88 172 48 201 52 221 30 9 -10 14 -25 10 -35 -5 -13
-1 -15 21 -10 89 20 -58 -32 -985 -348 l-193 -66 -157 54 c-1039 355 -1415
486 -1409 493 2 2 23 -4 47 -12 23 -8 68 -15 99 -15 43 0 60 -4 73 -19 9 -11
14 -22 11 -25 -3 -2 11 -8 30 -11 28 -5 43 -1 78 21 39 24 46 26 74 15 76 -31
168 -60 222 -71 32 -6 91 -23 130 -36 40 -13 123 -38 185 -54 62 -15 127 -34
144 -41 17 -7 40 -9 50 -5 36 14 35 14 -628 232 -340 111 -424 143 -375 144 6
0 23 9 37 20 14 11 27 20 29 20 2 0 144 -46 315 -101z m393 20 c572 -147 536
-138 595 -163 54 -23 95 -20 166 14 35 16 94 37 130 45 37 9 130 33 207 55 77
21 158 42 180 45 39 6 39 5 -20 -24 -33 -16 -55 -30 -50 -30 24 -3 -45 -29
-293 -112 -198 -65 -270 -85 -286 -79 -11 5 -152 50 -313 101 -161 51 -290 95
-288 99 4 7 -123 60 -143 60 -6 0 -14 5 -17 10 -9 15 2 13 132 -21z m2823 -39
c-8 -5 -19 -10 -25 -10 -5 0 -3 5 5 10 8 5 20 10 25 10 6 0 3 -5 -5 -10z
m-580 -39 c-18 -11 -254 -91 -266 -91 -20 1 143 70 166 71 14 0 41 7 60 14 40
15 62 19 40 6z m-3504 -45 c22 -7 65 -13 96 -12 35 2 55 -1 51 -7 -4 -6 3 -8
15 -5 12 3 21 3 20 -1 -5 -14 24 -51 40 -52 9 0 12 -3 6 -5 -10 -4 -261 79
-272 91 -8 8 3 6 44 -9z m3754 -36 c-8 -5 -19 -10 -25 -10 -5 0 -3 5 5 10 8 5
20 10 25 10 6 0 3 -5 -5 -10z m-2645 -48 c-3 -3 -11 0 -18 7 -9 10 -8 11 6 5
10 -3 15 -9 12 -12z m23 -251 c328 -109 641 -215 694 -234 90 -33 100 -35 125
-22 15 8 281 99 591 201 524 174 564 186 576 169 16 -22 43 -14 82 22 28 25
28 26 3 19 -17 -4 -15 -2 7 9 51 23 88 30 79 15 -6 -10 -4 -12 9 -7 11 4 15 3
10 -4 -4 -8 4 -9 27 -4 19 4 32 5 29 2 -11 -12 -911 -308 -1368 -451 l-84 -26
-226 71 c-125 39 -263 84 -307 99 -44 16 -259 87 -477 159 -373 124 -504 170
-436 157 31 -7 60 2 52 15 -3 5 0 9 5 9 6 0 280 -90 609 -199z"/>
<path d="M9071 7882 c35 -27 70 -56 78 -65 7 -10 19 -17 26 -17 7 0 19 -8 26
-17 11 -15 11 -16 -1 -5 -8 6 -19 12 -24 12 -6 0 1 -8 14 -17 14 -10 29 -17
33 -15 5 1 6 -2 3 -6 -6 -10 167 -188 199 -204 11 -6 3 4 -18 22 -21 18 -73
75 -116 128 -130 162 -209 232 -260 232 -20 0 -13 -8 40 -48z"/>
<path d="M9518 7560 c-34 -28 -83 -114 -103 -180 -5 -18 3 -11 31 24 22 27 63
75 91 108 50 57 58 78 30 78 -7 0 -29 -14 -49 -30z"/>
<path d="M8490 6976 c0 -2 8 -10 18 -17 15 -13 16 -12 3 4 -13 16 -21 21 -21
13z"/>
<path d="M8555 6910 c10 -11 20 -20 23 -20 3 0 -3 9 -13 20 -10 11 -20 20 -23
20 -3 0 3 -9 13 -20z"/>
<path d="M10595 8253 c17 -2 58 -13 93 -25 35 -11 65 -18 68 -15 8 8 -126 47
-159 46 l-32 -2 30 -4z"/>
<path d="M4375 8292 c-27 -14 -45 -27 -38 -29 6 -2 29 5 51 16 22 11 42 17 46
14 3 -4 6 -1 6 5 0 21 -15 20 -65 -6z"/>
<path d="M12132 7899 c10 -7 8 -9 -7 -9 -17 0 -17 -2 -5 -10 9 -6 11 -10 3
-10 -7 0 -10 -7 -6 -16 3 -8 12 -13 20 -10 11 5 13 0 8 -17 -6 -19 -2 -17 30
13 64 61 64 68 -1 68 -35 0 -51 -4 -42 -9z"/>
<path d="M12024 7685 c22 -8 42 -13 44 -10 8 8 -1 12 -43 18 l-40 7 39 -15z"/>
<path d="M9150 7628 c41 -45 50 -53 50 -45 0 2 -21 23 -47 47 l-48 45 45 -47z"/>
<path d="M8780 7395 c13 -14 26 -25 28 -25 3 0 -5 11 -18 25 -13 14 -26 25
-28 25 -3 0 5 -11 18 -25z"/>
<path d="M6157 7643 c8 -53 20 -73 44 -73 16 0 19 4 13 22 -3 12 -10 26 -15
32 -5 6 -18 22 -29 34 l-19 24 6 -39z"/>
<path d="M3174 6822 c4 -7 1 -12 -8 -12 -9 0 -16 -4 -16 -10 0 -5 -6 -10 -14
-10 -8 0 -13 -8 -11 -17 3 -23 22 -18 46 10 22 26 23 33 7 43 -7 4 -8 3 -4 -4z"/>
<path d="M2715 6148 c-17 -48 -46 -181 -42 -191 3 -7 6 -2 6 11 2 40 41 16 41
-25 0 -33 -43 -49 -51 -19 -4 16 -9 7 -17 -32 -7 -30 -10 -58 -6 -63 3 -5 25
-9 49 -9 38 0 45 3 49 23 3 12 14 63 25 112 12 50 22 101 24 115 1 14 6 30 10
36 4 7 -3 14 -18 18 -14 4 -25 11 -25 17 0 6 -4 7 -10 4 -5 -3 -10 -1 -10 4 0
15 -20 14 -25 -1z"/>
<path d="M2645 5146 c-15 -10 -17 -21 -12 -57 8 -57 82 -304 91 -303 3 1 59
10 124 20 l117 19 -58 10 c-40 7 -65 17 -77 32 -20 25 -110 227 -110 247 0 8
-11 21 -25 30 -29 19 -27 19 -50 2z"/>
<path d="M10399 7188 c-49 -59 -58 -82 -14 -33 34 37 60 75 52 75 -1 0 -19
-19 -38 -42z"/>
<path d="M10313 7078 c-19 -22 -71 -97 -88 -128 -18 -34 24 17 68 83 49 71 53
81 20 45z"/>
<path d="M11365 6992 c-16 -11 -37 -27 -45 -37 -10 -12 -4 -11 22 6 19 13 44
29 54 36 11 6 15 12 9 12 -5 1 -23 -7 -40 -17z"/>
<path d="M4368 6793 c7 -3 16 -2 19 1 4 3 -2 6 -13 5 -11 0 -14 -3 -6 -6z"/>
<path d="M11488 5947 c-38 -15 -35 -34 10 -80 36 -38 36 -39 7 -23 -16 9 -41
24 -55 33 -19 13 -17 8 10 -20 19 -21 55 -46 80 -58 25 -11 68 -32 97 -47 50
-26 53 -26 115 -12 35 7 104 14 155 15 59 1 97 6 107 14 22 18 20 25 -7 40
-19 10 -46 8 -155 -13 -143 -28 -187 -31 -227 -16 l-25 10 30 41 c38 53 38 65
0 73 -17 3 -47 17 -68 31 -20 14 -39 25 -42 24 -3 -1 -17 -6 -32 -12z"/>
<path d="M11736 5835 c-3 -9 1 -18 10 -22 21 -8 25 -1 9 20 -11 15 -13 16 -19
2z"/>
<path d="M4451 4543 l-1 -73 225 0 225 0 -2 73 c-1 70 -1 71 -8 22 -4 -27 -8
-42 -8 -32 -2 19 4 18 -187 22 -66 1 -142 6 -170 10 -27 4 -52 7 -55 6 -3 -1
-8 8 -12 21 -3 13 -6 -8 -7 -49z"/>
<path d="M6270 5670 c-19 -19 -20 -33 -20 -398 0 -354 1 -380 18 -395 17 -15
60 -17 420 -17 351 0 403 2 416 16 14 13 16 64 16 399 0 335 -2 386 -16 399
-13 14 -65 16 -415 16 -386 0 -400 -1 -419 -20z m740 -140 c0 -33 -4 -60 -10
-60 -5 0 -10 20 -10 45 l0 45 -302 -2 -303 -3 -3 -290 c-2 -159 -6 -292 -8
-294 -12 -13 -16 35 -21 313 l-6 306 331 0 332 0 0 -60z"/>
<path d="M7517 4601 c-20 -20 -47 -38 -60 -39 -36 -2 -171 -19 -182 -23 -5 -2
-44 1 -85 6 -98 11 -122 9 -197 -17 -58 -20 -68 -21 -140 -9 -281 45 -288 46
-543 46 -222 0 -262 -2 -308 -18 l-52 -19 -53 38 c-31 22 -44 28 -32 14 33
-37 97 -69 180 -90 74 -19 111 -20 639 -20 592 0 633 3 736 48 45 19 150 105
140 115 -3 3 -22 -12 -43 -32z"/>
<path d="M8437 5672 c-15 -17 -17 -59 -17 -405 0 -372 1 -387 19 -397 13 -6
162 -10 416 -10 254 0 403 4 416 10 18 10 19 25 19 403 0 292 -3 396 -12 405
-9 9 -116 12 -418 12 -382 0 -408 -1 -423 -18z m538 -92 c3 -5 48 -11 98 -12
51 -2 -45 -5 -213 -8 l-305 -5 -6 -150 c-3 -82 -7 -151 -7 -152 -1 -2 -6 -3
-12 -3 -6 0 -10 63 -10 170 l0 170 224 0 c139 0 227 -4 231 -10z"/>
<path d="M7995 4620 c10 -11 20 -20 23 -20 3 0 -3 9 -13 20 -10 11 -20 20 -23
20 -3 0 3 -9 13 -20z"/>
<path d="M9700 4609 c-17 -21 -36 -32 -58 -35 -19 -2 -39 -7 -45 -11 -7 -5
-82 -8 -167 -9 -85 -1 -195 -4 -245 -7 -64 -4 -112 -1 -165 10 -104 22 -356
22 -425 -1 -32 -10 -85 -16 -147 -16 -100 0 -198 -16 -198 -33 0 -6 -18 -7
-42 -4 -33 5 -38 4 -20 -3 60 -25 227 -31 747 -28 l540 4 78 29 c76 28 147 77
167 116 15 27 9 23 -20 -12z m-1417 -116 c-7 -2 -19 -2 -25 0 -7 3 -2 5 12 5
14 0 19 -2 13 -5z"/>
<path d="M8051 4564 c12 -15 98 -58 104 -53 2 3 -23 18 -56 36 -33 17 -55 25
-48 17z"/>
<path d="M11501 4575 c-1 -5 -16 -12 -34 -14 -35 -4 -50 -4 -348 5 -199 6
-207 5 -249 -16 -48 -25 -57 -25 -285 5 -89 11 -183 15 -297 13 -184 -3 -178
-1 -178 -70 l0 -28 703 0 703 0 -4 43 c-3 46 -9 78 -11 62z"/>
<path d="M12871 4714 c0 -11 3 -14 6 -6 3 7 2 16 -1 19 -3 4 -6 -2 -5 -13z"/>
<path d="M12506 3269 c-3 -8 -7 -39 -10 -69 -4 -48 -3 -53 9 -37 19 26 30 96
16 110 -7 7 -12 6 -15 -4z"/>
<path d="M4030 2756 c0 -2 7 -7 16 -10 8 -3 12 -2 9 4 -6 10 -25 14 -25 6z"/>
<path d="M5088 3789 c-16 -9 -18 -27 -18 -154 0 -117 3 -146 16 -159 12 -13
39 -16 123 -16 144 0 141 -4 141 169 0 73 -5 141 -10 152 -10 17 -22 19 -123
19 -62 0 -120 -5 -129 -11z"/>
<path d="M5820 3740 l0 -70 84 0 c67 0 85 3 90 16 10 27 7 99 -6 112 -7 7 -43
12 -90 12 l-78 0 0 -70z"/>
<path d="M6460 3740 l0 -70 84 0 c67 0 85 3 90 16 10 27 7 99 -6 112 -7 7 -43
12 -90 12 l-78 0 0 -70z"/>
<path d="M6693 2803 c-51 -2 -93 -8 -93 -13 0 -5 485 -10 1148 -12 631 -2
1156 -8 1167 -12 l20 -9 -20 21 c-20 20 -25 21 -1075 24 -580 2 -1097 3 -1147
1z"/>
<path d="M9234 2794 c-44 -16 -54 -32 -54 -91 0 -37 2 -38 56 -48 l42 -6 17
50 c19 58 17 105 -5 108 -8 1 -34 -5 -56 -13z"/>
<path d="M9363 2459 c-6 -6 -47 -13 -91 -16 l-80 -6 27 -38 c32 -47 91 -90
185 -136 65 -32 76 -34 134 -28 35 3 86 14 115 25 62 23 160 89 189 125 l21
26 -39 -7 c-22 -4 -57 -13 -79 -21 -22 -8 -76 -17 -120 -20 -73 -5 -85 -3
-132 21 -29 14 -67 39 -86 56 -24 20 -37 26 -44 19z"/>
<path d="M6084 2428 l-19 -23 23 19 c21 18 27 26 19 26 -2 0 -12 -10 -23 -22z"/>
<path d="M6309 2409 c-13 -18 -27 -21 -121 -26 -60 -3 -114 -1 -124 5 -12 6
-27 5 -48 -3 -17 -7 -79 -18 -136 -25 -140 -14 -170 -20 -170 -28 0 -9 107
-68 140 -76 17 -5 13 0 -12 14 -21 11 -38 23 -38 25 0 3 17 -2 38 -11 20 -9
73 -23 116 -31 77 -14 81 -14 162 11 90 28 166 80 197 135 20 35 17 42 -4 10z"/>
<path d="M5978 2223 c7 -3 16 -2 19 1 4 3 -2 6 -13 5 -11 0 -14 -3 -6 -6z"/>
<path d="M9935 8499 c-10 -15 1 -23 20 -15 9 3 13 10 10 16 -8 13 -22 13 -30
-1z"/>
<path d="M9837 8483 c-12 -12 -7 -33 8 -33 17 0 19 9 7 28 -5 7 -11 9 -15 5z"/>
<path d="M3460 7865 c0 -8 7 -15 15 -15 8 0 15 7 15 15 0 8 -7 15 -15 15 -8 0
-15 -7 -15 -15z"/>
<path d="M8190 7725 c-15 -18 -5 -35 21 -35 24 0 37 29 18 41 -19 12 -25 11
-39 -6z"/>
<path d="M11365 7319 c-4 -6 -5 -13 -2 -16 7 -7 27 6 27 18 0 12 -17 12 -25
-2z"/>
</g>
</svg>
